<svg xmlns="http://www.w3.org/2000/svg" width="171" height="170" viewBox="0 0 171 170">
  <defs>
    <style>
      .cls-1 {
        fill: #edf8fe;
      }

      .cls-2 {
        fill: #00d2ff;
      }

      .cls-3 {
        fill: #3a7bd5;
      }
    </style>
  </defs>
  <g id="Group_58" data-name="Group 58" transform="translate(-598 -990)">
    <ellipse id="Ellipse_2" data-name="Ellipse 2" class="cls-1" cx="85.5" cy="85" rx="85.5" ry="85" transform="translate(598 990)"/>
    <path id="Path_28" data-name="Path 28" class="cls-2" d="M120.472,59.652v54.768a4.226,4.226,0,0,1-4.213,4.213H36.213A4.226,4.226,0,0,1,32,114.421V53.333h88.472Z" transform="translate(606.686 992.121)"/>
    <g id="Group_9" data-name="Group 9" transform="translate(632.367 1034.922)">
      <path id="Path_32" data-name="Path 32" class="cls-3" d="M99,0H2.107A2.107,2.107,0,0,0,0,2.107v8.426a2.107,2.107,0,0,0,2.107,2.106H99a2.107,2.107,0,0,0,2.106-2.107V2.107A2.107,2.107,0,0,0,99,0ZM96.9,8.426H4.213V4.213H96.9V8.426Z"/>
      <path id="Path_33" data-name="Path 33" class="cls-3" d="M109.805,140.1a2.107,2.107,0,0,1-2.107,2.107H27.652a2.107,2.107,0,0,1-2.107-2.107V85.333H21.333V140.1a6.319,6.319,0,0,0,6.319,6.319H65.569v6.319H63.463a2.107,2.107,0,0,0-2.107,2.107v12.639a2.107,2.107,0,0,0,2.107,2.107h8.426A2.107,2.107,0,0,0,74,167.486V154.847a2.107,2.107,0,0,0-2.107-2.107H69.782v-6.319H107.7a6.319,6.319,0,0,0,6.319-6.319V85.333h-4.213ZM69.782,165.379H65.569v-8.426h4.213Z" transform="translate(-17.12 -68.481)"/>
      <path id="Path_34" data-name="Path 34" class="cls-3" d="M64,198.185V202.4h6.319a2.094,2.094,0,0,0,1.487-.615s4.771-4.754,8.458-8.426a6.109,6.109,0,0,0,5.4,0L96.229,203.9a6.214,6.214,0,0,0-.632,2.707,6.319,6.319,0,1,0,12.639,0h0a6.214,6.214,0,0,0-.632-2.707l6.351-6.351a6.093,6.093,0,0,0,5.414,0l12.656,12.656a2.106,2.106,0,0,0,1.489.615h6.319v-4.213h-5.447l-12.036-12.039a6.214,6.214,0,0,0,.632-2.707,6.319,6.319,0,1,0-12.639,0,6.214,6.214,0,0,0,.632,2.707l-6.351,6.351a6.093,6.093,0,0,0-5.414,0L88.646,190.359a6.214,6.214,0,0,0,.632-2.707,6.319,6.319,0,0,0-12.639,0,6.241,6.241,0,0,0,.632,2.72c-2.873,2.879-6.416,6.412-7.821,7.813Zm52.662-8.426a2.107,2.107,0,1,1-2.107,2.107A2.107,2.107,0,0,1,116.662,189.759ZM101.917,204.5a2.106,2.106,0,1,1-2.107,2.106A2.107,2.107,0,0,1,101.917,204.5ZM82.958,185.546a2.107,2.107,0,1,1-2.107,2.107A2.107,2.107,0,0,1,82.958,185.546Z" transform="translate(-51.361 -145.523)"/>
      <path id="Path_35" data-name="Path 35" class="cls-3" d="M153.543,110.876h8.426v-4.213h-8.426a4.126,4.126,0,0,0-4.213,4.038c0,.058,0,.116,0,.175V117.2h4.213Z" transform="translate(-119.84 -85.598)"/>
      <path id="Path_36" data-name="Path 36" class="cls-3" d="M257.837,119.305a2.107,2.107,0,0,0,2.107-2.107v-8.426a2.107,2.107,0,0,0-2.107-2.107H236.773a2.107,2.107,0,0,0-2.107,2.107V117.2a2.107,2.107,0,0,0,2.107,2.107Zm-18.958-8.426h16.852v4.213H238.879Z" transform="translate(-188.324 -85.601)"/>
    </g>
  </g>
</svg>
