<svg xmlns="http://www.w3.org/2000/svg" width="170" height="170" viewBox="0 0 170 170"><defs><style>.a{fill:#edf8fe;}.b{fill:#00d2ff;}.c{fill:#fff;}.d{fill:#3a7bd5;}</style></defs><g transform="translate(287 -1230)"><circle class="a" cx="85" cy="85" r="85" transform="translate(-287 1230)"/><path class="b" d="M19.086,10.667a8.421,8.421,0,0,0-8.42,8.42v8.42H82.239V10.667Z" transform="translate(-261.561 1255.438)"/><path class="c" d="M107.566,96v71.573a8.423,8.423,0,0,1-8.426,8.42H19.092a8.423,8.423,0,0,1-8.426-8.42V96Z" transform="translate(-261.561 1187.011)"/><path class="b" d="M172.131,198.032a27.4,27.4,0,1,0-37.937,25.261v6.315H155.27v-6.315A27.366,27.366,0,0,0,172.131,198.032Z" transform="translate(-347.177 1127.081)"/><circle class="c" cx="25.261" cy="25.261" r="25.261" transform="translate(-204.517 1266.105)"/><g transform="translate(-253 1264)"><path class="d" d="M96.9,90.578A6.319,6.319,0,0,1,90.578,96.9H10.532a6.319,6.319,0,0,1-6.319-6.319V10.532a6.319,6.319,0,0,1,6.319-6.319H54.768V0H10.532A10.545,10.545,0,0,0,0,10.532V90.578A10.545,10.545,0,0,0,10.532,101.11H90.578A10.545,10.545,0,0,0,101.11,90.578V48.448H96.9V90.578Z"/><path class="d" d="M42.667,85.333H76.349v4.21H42.667Z" transform="translate(-34.247 -68.481)"/><path class="d" d="M53.333,42.667h4.21v4.21h-4.21Z" transform="translate(-42.808 -34.247)"/><path class="d" d="M96,42.667h4.21v4.21H96Z" transform="translate(-77.041 -34.247)"/><path class="d" d="M127.65,230.268v-6.315a2.105,2.105,0,0,0-1.295-1.941,25.261,25.261,0,0,1-.015-46.641l-1.625-3.884a29.471,29.471,0,0,0-1.276,53.832v4.949Z" transform="translate(-85.531 -137.578)"/><path class="d" d="M302.877,335.96a29.4,29.4,0,0,0,16.841-26.627h-4.21a25.2,25.2,0,0,1-15.546,23.32,2.105,2.105,0,0,0-1.295,1.941v6.315h4.21Z" transform="translate(-239.676 -248.22)"/><path class="d" d="M198.175,289.54V257.964h8.42v-4.21H187.649a2.105,2.105,0,1,1,2.105-2.105h4.21a6.315,6.315,0,1,0-6.315,6.315h6.315V289.54Z" transform="translate(-145.516 -196.851)"/><path class="d" d="M234.667,27.366A27.366,27.366,0,1,0,262.033,0,27.366,27.366,0,0,0,234.667,27.366ZM262.033,4.21a23.156,23.156,0,1,1-23.156,23.156A23.156,23.156,0,0,1,262.033,4.21Z" transform="translate(-188.289)"/><path class="d" d="M288.618,99.856l8.42,8.42,2.977-2.977-6.932-6.932,6.932-6.932-2.977-2.977-8.42,8.42a2.1,2.1,0,0,0,0,2.976Z" transform="translate(-231.122 -70.987)"/><path class="d" d="M400.769,108.276l8.42-8.42a2.105,2.105,0,0,0,0-2.977l-8.42-8.42-2.977,2.977,6.932,6.932-6.932,6.932Z" transform="translate(-319.221 -70.987)"/><path class="d" d="M42.667,130.105v8.42h4.21V132.21h6.315V128h-8.42A2.105,2.105,0,0,0,42.667,130.105Z" transform="translate(-34.247 -102.721)"/><path class="d" d="M416,422.315v4.21h8.42a2.105,2.105,0,0,0,2.105-2.105V416h-4.21v6.315Z" transform="translate(-333.836 -333.836)"/></g></g></svg>