<svg xmlns="http://www.w3.org/2000/svg" width="80" height="80" viewBox="0 0 80 80">
  <g id="Group_103" data-name="Group 103" transform="translate(157 -2131)">
    <rect id="Rectangle_47" data-name="Rectangle 47" width="80" height="80" rx="4" transform="translate(-157 2131)" fill="none"/>
    <g id="Group_102" data-name="Group 102" transform="translate(-947.681 305.142)">
      <path id="Path_61" data-name="Path 61" d="M66.222,75.874A11.342,11.342,0,0,1,64.8,98.459H22.272a11.342,11.342,0,0,1-1.418-22.585v-.1A11.342,11.342,0,0,1,32.2,64.433h1.418a11.342,11.342,0,0,1,22.684,0v.1a11.342,11.342,0,0,1,9.924,11.243v.1Z" transform="translate(787.137 1786.188)" fill="#00d2ff"/>
      <g id="Group_13" data-name="Group 13" transform="translate(796.681 1837.858)">
        <path id="Path_62" data-name="Path 62" d="M58.049,65.4a12.774,12.774,0,0,0-9.924-11.342,12.76,12.76,0,0,0-25.393-.316h-.079A12.787,12.787,0,0,0,9.946,65.4a12.76,12.76,0,0,0,2.782,25.2h7.089V87.771H12.728a9.924,9.924,0,0,1-1.243-19.76,1.52,1.52,0,0,0,1.243-1.506,9.936,9.936,0,0,1,9.924-9.924H24.07a1.418,1.418,0,0,0,1.418-1.418,9.924,9.924,0,0,1,19.848.1,1.418,1.418,0,0,0,1.243,1.406A9.95,9.95,0,0,1,55.26,66.6,1.418,1.418,0,0,0,56.5,68.011a9.924,9.924,0,0,1-1.243,19.76H48.172v2.835H55.26a12.76,12.76,0,0,0,2.789-25.2Z" transform="translate(0 -42.401)" fill="#3a7bd5"/>
        <path id="Path_63" data-name="Path 63" d="M220.182,87.926V85.091a7.1,7.1,0,0,0-7.089,7.089h2.835A4.253,4.253,0,0,1,220.182,87.926Z" transform="translate(-184.77 -79.417)" fill="#3a7bd5"/>
        <path id="Path_64" data-name="Path 64" d="M145.93,266.841l-5.671,5.671,2,2,3.251-3.251V289.11a1.3,1.3,0,0,1-1.418,1.418h-5.671v2.835H144.1a4.134,4.134,0,0,0,4.253-4.011q0-.121,0-.242V271.266l3.251,3.251,2-2-5.671-5.671a1.418,1.418,0,0,0-2,0Z" transform="translate(-120.027 -236.65)" fill="#3a7bd5"/>
        <path id="Path_65" data-name="Path 65" d="M266.976,288.509V270.665a1.3,1.3,0,0,1,1.418-1.418h5.671v-2.835h-5.671a4.134,4.134,0,0,0-4.253,4.012q0,.121,0,.242v17.844l-3.251-3.251-2,2,5.671,5.671a1.418,1.418,0,0,0,2,0l5.671-5.671-2-2Z" transform="translate(-224.476 -236.637)" fill="#3a7bd5"/>
        <path id="Path_66" data-name="Path 66" d="M394.426,266.424h2.835v2.835h-2.835Z" transform="translate(-342.002 -236.648)" fill="#3a7bd5"/>
        <path id="Path_67" data-name="Path 67" d="M95.76,447.757H98.6v2.835H95.76Z" transform="translate(-83.032 -393.88)" fill="#3a7bd5"/>
      </g>
    </g>
  </g>
</svg>
