<svg xmlns="http://www.w3.org/2000/svg" width="170" height="170" viewBox="0 0 170 170"><defs><style>.a{fill:#edf8fe;}.b{fill:#fff;}.c{fill:#87d2f3;}.d{fill:#00d2ff;}.e{fill:#3a7bd5;}</style></defs><g transform="translate(287 -988)"><circle class="a" cx="85" cy="85" r="85" transform="translate(-287 988)"/><g transform="translate(-2 -255)"><g transform="translate(-248.878 1329.31)"><path class="b" d="M341.333,277.333a12.73,12.73,0,1,1,0,25.461Z" transform="translate(-276.127 -275.211)"/><path class="b" d="M106.667,341.333h25.461a12.73,12.73,0,1,1-25.461,0Z" transform="translate(-87.765 -326.481)"/><path class="b" d="M290.063,277.333v25.461a12.73,12.73,0,1,1,0-25.461Z" transform="translate(-224.748 -275.211)"/><path class="b" d="M132.128,290.063H106.667a12.73,12.73,0,1,1,25.461,0Z" transform="translate(-87.765 -275.211)"/><path class="b" d="M458.609,268.789v29.7a2.122,2.122,0,0,1-2.122,2.122H448V266.667h8.487A2.121,2.121,0,0,1,458.609,268.789Z" transform="translate(-361.742 -266.667)"/><path class="b" d="M21.275,266.666v33.948H12.788a2.122,2.122,0,0,1-2.122-2.122v-29.7a2.122,2.122,0,0,1,2.122-2.122h8.487Z" transform="translate(-10.666 -266.666)"/></g><path class="c" d="M234.667,64h8.487v8.487h-8.487Z" transform="translate(-439.355 1225.73)"/><path class="b" d="M243.153,117.276v14.852h-8.487V106.667h8.487Z" transform="translate(-439.355 1191.347)"/><path class="d" d="M106.027,174.852V160h33.622v63.652a4.236,4.236,0,0,1-4.2,4.243H68.2a4.236,4.236,0,0,1-4.2-4.243V160H97.622v14.852Zm24.895,24.132a12.748,12.748,0,0,0-9.4-15.32,12.617,12.617,0,0,0-15.173,9.49,12.748,12.748,0,0,0,9.4,15.32,12.5,12.5,0,0,0,5.774,0A12.7,12.7,0,0,0,130.922,198.984Zm-48.8,9.49a12.617,12.617,0,0,0,15.173-9.49,12.748,12.748,0,0,0-9.4-15.32,12.617,12.617,0,0,0-15.173,9.49,12.861,12.861,0,0,0,0,5.829A12.7,12.7,0,0,0,82.126,208.475Z" transform="translate(-302.27 1148.093)"/><g transform="translate(-251 1277)"><path class="e" d="M473.577,256h-4.243v4.243h4.243v29.7h-4.243v4.244h4.243a4.243,4.243,0,0,0,4.243-4.243v-29.7A4.243,4.243,0,0,0,473.577,256Z" transform="translate(-376.711 -205.811)"/><path class="e" d="M0,260.243v29.7a4.243,4.243,0,0,0,4.243,4.244H8.487v-4.243H4.243v-29.7H8.487V256H4.243A4.243,4.243,0,0,0,0,260.243Z" transform="translate(0 -205.811)"/><path class="e" d="M146.821,72.428H128v4.243h18.821V87.281h-4.182v4.243H163.55V87.281h-4.183V76.672h18.821V72.429H159.368V66.063h4.182V61.82h-4.182V55.455a2.107,2.107,0,0,0-2.091-2.122h-8.365a2.107,2.107,0,0,0-2.091,2.122V61.82h-4.182v4.243h4.182Zm8.365,14.852H151V66.063h4.182ZM151,57.577h4.182V61.82H151Z" transform="translate(-102.539 -42.724)"/><path class="e" d="M129.021,283.466a2.112,2.112,0,0,1-2.1,2.122H59.64a2.112,2.112,0,0,1-2.1-2.122v-48.8h-4.2v48.8a6.336,6.336,0,0,0,6.307,6.365h67.278a6.336,6.336,0,0,0,6.307-6.365v-48.8h-4.2Z" transform="translate(-42.724 -188.722)"/><path class="e" d="M96,281.518a14.852,14.852,0,1,0,14.852-14.852A14.852,14.852,0,0,0,96,281.518Zm14.852,10.609a10.628,10.628,0,0,1-10.4-8.487h20.793a10.628,10.628,0,0,1-10.4,8.487Zm0-21.217a10.628,10.628,0,0,1,10.4,8.487H100.456A10.628,10.628,0,0,1,110.852,270.91Z" transform="translate(-77.098 -214.162)"/><path class="e" d="M281.518,266.667a14.852,14.852,0,1,0,14.852,14.852A14.852,14.852,0,0,0,281.518,266.667ZM270.91,281.519a10.628,10.628,0,0,1,8.487-10.4v20.793A10.628,10.628,0,0,1,270.91,281.519Zm12.73,10.4V271.123a10.609,10.609,0,0,1,0,20.793Z" transform="translate(-214.162 -214.163)"/><path class="e" d="M422.307,21.217a16.993,16.993,0,0,1-16.974,16.974v4.243a21.217,21.217,0,1,0,0-42.434V4.243A16.993,16.993,0,0,1,422.307,21.217Z" transform="translate(-325.44)"/><path class="e" d="M416,70.307V74.55a10.609,10.609,0,0,0,0-21.217v4.243a6.365,6.365,0,0,1,0,12.73Z" transform="translate(-333.986 -42.724)"/><path class="e" d="M21.217,42.434V38.191a16.974,16.974,0,1,1,0-33.947V0a21.217,21.217,0,1,0,0,42.434Z" transform="translate(0)"/><path class="e" d="M53.276,57.577V53.333a10.609,10.609,0,0,0,0,21.217V70.307a6.365,6.365,0,0,1,0-12.73Z" transform="translate(-34.18 -42.724)"/><path class="e" d="M96,100.243c1.192,0,1.7.46,2.743,1.5a7.384,7.384,0,0,0,11.487,0c1.04-1.04,1.549-1.5,2.743-1.5V96a7.561,7.561,0,0,0-5.744,2.743c-1.04,1.04-1.551,1.5-2.743,1.5s-1.7-.46-2.743-1.5A7.561,7.561,0,0,0,96,96Z" transform="translate(-77.069 -77.054)"/><path class="e" d="M339.153,104.487a7.562,7.562,0,0,0,5.744-2.743c1.04-1.04,1.549-1.5,2.743-1.5V96a7.561,7.561,0,0,0-5.744,2.743c-1.04,1.04-1.551,1.5-2.743,1.5s-1.7-.46-2.743-1.5A7.561,7.561,0,0,0,330.666,96v4.243c1.192,0,1.7.46,2.743,1.5A7.563,7.563,0,0,0,339.153,104.487Z" transform="translate(-265.461 -77.054)"/><path class="e" d="M362.667,192h4.243v4.243h-4.243Z" transform="translate(-291.07 -154.096)"/><path class="e" d="M128,192h4.243v4.243H128Z" transform="translate(-102.731 -154.096)"/><path class="e" d="M106.667,448H149.1v4.243H106.667Z" transform="translate(-85.711 -359.62)"/><path class="e" d="M384,448h4.243v4.243H384Z" transform="translate(-308.192 -359.62)"/><path class="e" d="M341.333,448h4.243v4.243h-4.243Z" transform="translate(-273.948 -359.62)"/></g></g></g></svg>