<svg xmlns="http://www.w3.org/2000/svg" width="72.436" height="72.435" viewBox="0 0 72.436 72.435"><defs><style>.a{fill:#fff;}</style></defs><g transform="translate(-647 -3308.702)"><g transform="translate(647 3308.702)"><path class="a" d="M72.435,47.887V24.532a1.156,1.156,0,0,0-.827-1.108L60.8,20.218a16.1,16.1,0,0,0,1.358-5.962,14.256,14.256,0,0,0-28.512,0,16.1,16.1,0,0,0,1.358,5.962L24.53,23.326,1.485,16.488A1.156,1.156,0,0,0,0,17.6V64.344a1.156,1.156,0,0,0,.827,1.108l23.356,6.93.017.005.011,0a1.131,1.131,0,0,0,.132.029l.036.006a1.168,1.168,0,0,0,.147.011,1.156,1.156,0,0,0,.151-.011l.036-.006a1.176,1.176,0,0,0,.132-.029l.011,0,.011,0,22.567-6.7a1.15,1.15,0,0,0,.937,0l22.578,6.7a1.156,1.156,0,0,0,1.485-1.108V47.9s0-.006,0-.009ZM70.124,25.395V46.357L49.061,40.108V36.82c1.507-1.552,7.427-7.859,10.769-14.48l10.294,3.054ZM47.9,2.312A11.958,11.958,0,0,1,59.849,14.256a15.065,15.065,0,0,1-1.6,6.085,1.154,1.154,0,0,0-.118.252C55.341,26.472,49.954,32.5,47.9,34.679c-2.048-2.178-7.43-8.2-10.217-14.073a1.156,1.156,0,0,0-.128-.274,15.059,15.059,0,0,1-1.6-6.075A11.958,11.958,0,0,1,47.9,2.312ZM46.749,36.82v3.288L25.686,46.357V25.395L35.98,22.34C39.322,28.961,45.242,35.268,46.749,36.82Zm-44.437,5.7,7.986,2.37a1.156,1.156,0,1,0,.657-2.216L2.312,40.108V19.145l21.062,6.249V46.357l-7.986-2.37A1.156,1.156,0,0,0,14.73,46.2l8.644,2.565V69.731L2.312,63.482V42.519ZM49.061,63.482V55.113a1.156,1.156,0,0,0-2.312,0v8.368L25.686,69.731V48.768l21.063-6.249V50.49a1.156,1.156,0,0,0,2.312,0V42.519l21.063,6.249V69.731Z"/><path class="a" d="M266.422,56.182a8.091,8.091,0,1,0-8.091-8.091A8.1,8.1,0,0,0,266.422,56.182Zm0-13.871a5.779,5.779,0,1,1-5.779,5.779A5.786,5.786,0,0,1,266.422,42.312Z" transform="translate(-218.518 -33.835)"/></g></g></svg>