<svg xmlns="http://www.w3.org/2000/svg" width="54" height="54" viewBox="0 0 54 54"><defs><style>.a{fill:#edf8fe;}.b{fill:#3a7bd5;}</style></defs><g transform="translate(-170 -1816)"><circle class="a" cx="27" cy="27" r="27" transform="translate(170 1816)"/><g transform="translate(180.625 1826.625)"><path class="b" d="M24.213,13.448l-1.132-1.164a.243.243,0,0,0-.18-.077h0a.234.234,0,0,0-.18.077l-7.848,7.906-2.856-2.856a.249.249,0,0,0-.36,0l-1.145,1.145a.256.256,0,0,0,0,.367l3.6,3.6a1.139,1.139,0,0,0,.753.367,1.194,1.194,0,0,0,.746-.354h.006l8.6-8.645A.275.275,0,0,0,24.213,13.448Z" transform="translate(-0.601 -0.752)"/><path class="b" d="M16.755,5.176a11.574,11.574,0,1,1-8.189,3.39,11.5,11.5,0,0,1,8.189-3.39m0-1.8a13.38,13.38,0,1,0,13.38,13.38,13.378,13.378,0,0,0-13.38-13.38Z"/></g></g></svg>